# xmcd
#
# Track frame offsets:
#	210
#	18153
#	36634
#	51308
#	63867
#	75585
#	87471
#	100298
#	112856
#	126038
#	139014
#	150716
#	162835
#	175878
#	188314
#	203644
#	216829
#	225298
#	241390
#	256347
#	264821
#	277492
#	291267
#	304605
#	315522
#
# Disc length: 4373
#
# Revision: 1
# Processed by: cddbd v1.5.1PL0 Copyright (c) Steve Scherf et al.
# Submitted via: audiograbber 1.83.01
# Normalized: r0:DSETVAR1
#
DISCID=52111319
DTITLE=Various Artist - Too Late, Too Late - Vol. 12 - 1917-48
DYEAR=1900
DGENRE=Blues
TTITLE0=Ciro's Club Coon Orchestra - Boy of Mine
TTITLE1=Ciro's Club Coon Orchestra - Clef Club March
TTITLE2=Sonny Clay - Gang of Blues
TTITLE3=Sonny Clay - Punishing the Piano
TTITLE4=Stove Pipe Jazz Band - Six Street Blues
TTITLE5=Stove Pipe Jazz Band - Spanish Rag
TTITLE6=Gus Mulcay - The St. Louis Blues
TTITLE7=Gus Mulcay - Farewell Blues
TTITLE8=Charlie 'Dad' Nelson - Cotton Field Blues (take 2)
TTITLE9=Herman Perry - Muddy Water
TTITLE10=Taylor's Kentucky Boys - Sourwood Mountain
TTITLE11=Blind Blake - Brownskin Mama Blues (take 1)
TTITLE12=Southern Blues Singers - Doodlin' Back
TTITLE13=Lillie Mae - Buggy Jail House Blues
TTITLE14=W.M. Smith - Sally Gooden
TTITLE15=Walter Roland and Sonny Scott - Frisco Blues (take 1, test)
TTITLE16=Convicts of Cummins Farm, Gould, Ark - Rock Island Line
TTITLE17=Convicts of Bellwood Prison Camp, Atlanta, Ga - The Longest Train I Ever Saw
TTITLE18=Frank Evans - Red River Blues
TTITLE19=Sam Carter and Group - High-Rolling Sergeant
TTITLE20=The Yas Yas Girl (Merline Johnson) - Please, Come Back to Me (take 1, test)
TTITLE21=The Yas Yas Girl (Merline Johnson) - Love Shows Weakness (take 2, test)
TTITLE22=Lil Johnson - Get Me Out of That Crack
TTITLE23=Hollis 'Fat Head' Washington - Early In the Morning
TTITLE24=Leadbelly - Gallows Pole
EXTD=
EXTT0=
EXTT1=
EXTT2=
EXTT3=
EXTT4=
EXTT5=
EXTT6=
EXTT7=
EXTT8=
EXTT9=
EXTT10=
EXTT11=
EXTT12=
EXTT13=
EXTT14=
EXTT15=
EXTT16=
EXTT17=
EXTT18=
EXTT19=
EXTT20=
EXTT21=
EXTT22=
EXTT23=
EXTT24=
PLAYORDER=
